<?xml version="1.0" encoding="utf-8"?>
<!-- Generator: Adobe Illustrator 23.0.1, SVG Export Plug-In . SVG Version: 6.00 Build 0)  -->
<svg version="1.1" id="Layer_1" xmlns="http://www.w3.org/2000/svg" xmlns:xlink="http://www.w3.org/1999/xlink" x="0px" y="0px"
	 viewBox="0 0 5032.57 1036.19" style="enable-background:new 0 0 5032.57 1036.19;" xml:space="preserve">
<style type="text/css">
	.st0{fill:#FF621F;}
	.st1{fill:#FFFFFF;}
</style>
<g>
	<path class="st0" d="M0.05,518.15c0-130.23,0.07-260.45-0.05-390.68C-0.03,94.03,11.95,65.42,34.46,41.3
		C60.38,13.53,92.94,0.18,130.83,0.15c124.73-0.09,249.46-0.03,374.18-0.03c133.23,0,266.45-0.36,399.68,0.18
		c50.89,0.21,89.48,23.51,114.83,67.76c11.28,19.68,16.43,41.42,16.44,63.93c0.18,257.45,0.55,514.91-0.16,772.36
		c-0.2,72.84-51.36,120.53-109.48,130.09c-7.13,1.17-14.37,1.75-21.65,1.75c-258.2-0.04-516.41,0-774.61-0.06
		C67.24,1036.12,15.32,994,2.09,932.64C0.72,926.29,0,919.87,0,913.32C0.06,781.6,0.05,649.87,0.05,518.15z M517.27,71.66
		c-43.74,0-87.48,0-131.23,0c-85.48,0-170.97,0.2-256.45-0.12C105.84,71.45,80,86.76,72.63,114.97c-1.65,6.32-2.1,12.77-2.1,19.3
		c0.04,255.95,0.03,511.91,0.03,767.86c0,1.75-0.07,3.5,0.02,5.25c1.02,19.97,9.26,36.08,25.87,47.5
		c10.65,7.33,22.61,9.81,35.5,9.81c256.95-0.1,513.91-0.08,770.86-0.08c1.5,0,3,0.01,4.5-0.01c23.4-0.43,44.16-14.98,52.65-36.85
		c3.22-8.29,4.15-16.88,4.15-25.71c-0.04-255.95-0.03-511.91-0.03-767.86c0-2,0.08-4-0.04-6c-1.16-19.38-9.22-35.08-25.23-46.31
		c-10.57-7.41-22.43-10.29-35.35-10.28C774.73,71.7,646,71.66,517.27,71.66z"/>
	<path class="st0" d="M3935.1,310.69c-13.4,24.62-26.98,49.58-40.47,74.35c-3.14,0.36-4.33-1.95-6.06-3.18
		c-39.39-27.99-82.75-43.85-131.54-42.8c-13.04,0.28-25.9,2.3-37.98,7.61c-26.42,11.6-32.98,36.14-27.79,58.1
		c2.31,9.76,8.71,16.7,16.45,22.54c9.08,6.85,19.38,11.34,30.03,15.05c21.01,7.32,42.69,12.26,64.12,18.1
		c24.34,6.64,48.48,13.96,71.67,24.01c16.62,7.2,31.91,16.58,44.96,29.33c18.97,18.53,29.72,40.97,32.6,67.36
		c2.14,19.56,1.54,38.91-3,58.07c-7.36,31.07-24.55,55.42-50.81,73.39c-20.56,14.07-43.49,22.54-67.88,26.53
		c-90.01,14.72-173.2-3.67-249.86-52.64c-2.06-1.31-4.42-2.39-6.21-5.46c13.41-26.19,27.03-52.78,40.69-79.45
		c1.04,0.26,1.88,0.23,2.38,0.62c31.52,24.34,66.99,40.46,105.4,50.34c27.9,7.18,56.13,9.22,84.67,4.33
		c8.41-1.44,16.45-4.05,24.03-8.09c26.71-14.27,26.89-51.31,9.38-67.52c-7.06-6.53-14.91-11.69-23.5-15.86
		c-16.49-7.99-34.06-12.87-51.53-18.06c-24.88-7.4-50.12-13.61-74.55-22.49c-15.52-5.64-30.73-11.95-44.78-20.76
		c-10.65-6.67-20.37-14.43-28.61-23.99c-12.42-14.41-19.89-31.12-22.61-49.82c-3.91-26.91-1.84-53.4,7.89-78.93
		c14.37-37.69,41.73-62.71,78.17-78.47c23.88-10.33,49-15.23,74.92-16.58c63.78-3.31,121.15,15.85,174.43,49.47
		C3931.57,306.96,3933.7,307.88,3935.1,310.69z"/>
	<path class="st1" d="M1649.6,586.94c25.12,14.44,50.39,28.96,75.39,43.33c0.76,2.66-0.61,4.29-1.42,6.06
		c-10.99,24-28.18,42.86-48.98,58.65c-31.29,23.76-66.72,37.85-105.25,44.38c-36.52,6.19-72.76,5.16-108.04-6.97
		c-45.74-15.73-82.76-43.75-111.96-82.09c-28.28-37.15-45.76-78.98-51.44-125.34c-12.03-98.08,37.42-213.67,155.82-255.83
		c31.01-11.04,63.26-13.92,96.03-11.87c24.61,1.54,48.59,6.01,71.37,15.6c40.13,16.9,72.16,43.3,94.01,81.38
		c1.35,2.36,2.53,4.81,4.1,7.81c-23.98,16.52-47.76,32.9-71.28,49.11c-2.79-0.9-3.06-3.14-3.94-4.83
		c-19.78-38-51.63-58.47-93.46-64.54c-15.97-2.32-31.91-2.17-47.74,0.86c-32.76,6.27-58.3,23.98-78.05,50.39
		c-17.46,23.35-26.87,50.08-30.97,78.64c-5.86,40.83,0.56,79.77,20.85,115.85c18.36,32.64,44.73,56.91,81.28,66.68
		c48.94,13.09,92.96,2.39,130.11-33.03c8.22-7.84,14.37-17.23,19.39-27.39C1646.51,591.58,1647.03,589.01,1649.6,586.94z"/>
	<path class="st1" d="M2125.61,652.2c-1.82,5.29-4.31,9.29-6.78,13.27c-19.86,31.96-47.95,54.28-82.88,67.21
		c-45.98,17.02-93.24,18.72-139.63,2.92c-66.42-22.61-106.68-69.77-118.99-138.79c-10.16-56.93,1.98-109.52,39.38-154.58
		c29.35-35.35,67.95-55.04,113.25-61.39c32.32-4.53,64.51-3.34,95.47,7.67c63.2,22.49,102.16,66.82,116.43,132.49
		c4.49,20.66,5.18,41.6,3.12,62.63c-0.24,2.44,0.08,5.05-2.32,7.79c-89.8,0-180.18,0-270.55,0c-0.1,27.89,19.65,68.05,62.3,82.28
		c36.01,12.01,93.12-0.23,113.44-43.14C2073.58,637.72,2099.42,644.91,2125.61,652.2z M1870.64,530.56
		c8.22,1.44,175.32,1.12,180.58-0.35c-3.6-50.07-44.12-88.91-99.38-84.64C1907.87,448.96,1868.65,489.98,1870.64,530.56z"/>
	<path class="st1" d="M3428.81,630.4c26.44,7.36,52.08,14.5,78.03,21.72c-0.43,3.36-2.05,5.59-3.33,7.9
		c-17.03,30.52-42.28,52.15-73.34,67.36c-49.43,24.21-126.56,25.51-179.03-2.74c-51.14-27.54-81.66-70.07-92.32-126.74
		c-7.45-39.59-3.08-78.32,13.78-114.98c25.42-55.26,69.23-88.09,128.24-100.24c36.3-7.47,72.85-6.39,107.91,6.49
		c65.99,24.25,104.51,71.85,116.25,141.11c2.98,17.59,3.26,35.3,1.51,53.05c-0.24,2.45,0.04,5.04-2.07,7.9
		c-89.87,0-180.24,0-270.63,0c-1.39,4.7,0.06,8.51,0.83,12.34c10.21,50.57,56.78,82.26,107.63,73.36
		c6.67-1.17,13.21-2.71,19.51-5.14C3402.25,663.91,3419.3,652.02,3428.81,630.4z M3252.16,530.57c8.6,1.46,175.37,1.1,180.56-0.4
		c-3.63-50.12-44.19-88.89-99.41-84.61C3289.34,448.98,3249.99,490.17,3252.16,530.57z"/>
	<path class="st0" d="M5028.79,591.36c-89.85,0-180.23,0-270.55,0c-2.39,33.64,27.61,71.83,64.4,82.98
		c39.18,11.88,92.35-3.85,110.44-42.76c5.41-0.04,67.9,16.83,78.07,21.15c-0.24,2.95-2.05,5.37-3.48,7.86
		c-20.86,36.31-51.96,60.26-90.99,74.08c-31.17,11.04-63.44,12.97-96.14,9.45c-34.92-3.76-66.34-16.38-93.78-38.23
		c-33.38-26.57-54.03-61.29-62.5-102.91c-9.67-47.54-3.55-93.22,20.71-135.48c26.84-46.76,68.07-74.41,120.5-84.89
		c37.13-7.42,74.35-6.24,110.04,7.35c64.59,24.59,102.24,71.8,113.92,139.78c3.14,18.29,4.45,36.7,1.46,55.19
		c-0.24,1.48-0.44,2.96-0.76,4.42C5030.03,589.81,5029.59,590.18,5028.79,591.36z M4937.12,530.84
		c-3.79-53.37-46.98-89.96-100.03-85.22c-43.74,3.91-84.24,46.84-80.16,85.22C4816.96,530.84,4877.02,530.84,4937.12,530.84z"/>
	<path class="st0" d="M4026.1,425.15c1.03-2.42,2.76-3.06,4.19-3.98c44.47-28.56,93.08-43.11,146-42.59
		c23.83,0.24,47.36,2.96,69.95,11.13c49.08,17.75,77.78,52.33,85.78,103.99c1.72,11.13,2.49,22.33,2.49,33.59
		c-0.01,34.99-0.01,69.97,0.01,104.96c0,4.49-0.09,9,0.88,13.43c1.73,7.88,6.35,12.82,14.42,14.31c1.94,0.36,4.02,0.3,5.8,1.94
		c0,25.27,0,50.7,0,76.81c-21.21,4.33-42.36,8.16-63.58,1.74c-19.9-6.02-30.78-20.33-33.86-40.71c-0.7-4.61-1.17-9.26-1.75-13.85
		c-2.64-0.37-3.22,1.66-4.26,2.85c-36.35,41.88-82.73,60.44-137.42,56.14c-44.38-3.49-79.03-24.44-98.49-65.74
		c-19.57-41.53-12.2-94.54,31.17-127.69c21.11-16.14,45.29-25.3,71.26-29.52c40.4-6.57,80.14-3.64,118.94,9.88
		c1.34,0.47,2.72,1.39,4.83,0.26c0.9-3.53,0.38-7.49,0.41-11.39c0.07-9.26-0.37-18.49-2.44-27.55
		c-5.42-23.78-19.81-39.41-43.2-46.21c-23.93-6.96-47.95-5.36-71.79,0.78c-23.24,5.99-44.16,17.06-64.18,30.02
		c-1.68,1.09-3.33,2.22-5.02,3.28c-0.41,0.26-0.92,0.35-2.33,0.86C4043.98,463.22,4035.4,443.75,4026.1,425.15z M4242.81,584.31
		c-24.46-10.64-64.13-16.25-88.92-12.6c-17.91,2.64-34.33,8.75-47.34,21.95c-16.79,17.03-17.93,44.36-2.64,62.78
		c10.57,12.73,24.31,20.11,40.67,21.28c35.34,2.54,65.95-7.84,90.05-34.82c4.66-5.22,7.93-11.1,8.09-18.06
		C4243.03,611.39,4242.81,597.93,4242.81,584.31z"/>
	<path class="st1" d="M2218.43,385.05c27.63,0,54.54,0,82.27,0c0,20.37,0,40.39,0,60.42c2.02-0.01,2.37-1.07,2.86-1.81
		c21.49-31.94,52.25-50.23,88.8-59.44c24.2-6.1,48.87-7.69,73.6-3.34c27.2,4.79,47.76,19.43,61.7,43.25
		c8.82,15.09,13.44,31.62,16.1,48.78c2.53,16.34,3.38,32.77,3.36,49.29c-0.09,69.23-0.04,138.46-0.04,207.69c0,2.73,0,5.45,0,8.67
		c-30.57,0-60.65,0-90.76,0c-1.38-2.87-0.77-5.66-0.77-8.33c-0.04-63.23-0.06-126.47-0.02-189.7c0.01-13.8-0.9-27.47-4.73-40.79
		c-1.1-3.82-2.48-7.6-4.15-11.21c-9.22-19.96-26.98-30.44-50.42-28.94c-11.89,0.76-23.09,4.21-33.51,9.9
		c-22.87,12.51-40.06,30.33-50.36,54.51c-2,4.69-2.83,9.44-2.82,14.54c0.08,63.73,0.06,127.46,0.03,191.2
		c0,2.72,0.44,5.48-0.43,8.14c-5.27,1.45-80.97,1.83-90.69,0.4C2218.43,620.76,2218.43,503.17,2218.43,385.05z"/>
	<path class="st0" d="M4660.15,261.26c-5.98,22.29-12.03,44.87-18.01,67.18c-3.5,0.41-5.54-1.31-7.78-2.26
		c-11.82-5-24.14-8.06-36.88-9.42c-6.53-0.69-13.02-0.04-19.33,1.63c-10.96,2.9-19.1,9.49-24.32,19.62
		c-3.47,6.73-5.45,13.9-6.58,21.37c-2.16,14.39-1.17,28.8-1.2,44c28.66,0,56.77,0,85.36,0c0,23.62,0,46.47,0,70.09
		c-28.27,0-56.38,0-85.28,0c0,88.6,0,176.44,0,264c-5.79,1.91-78.99,2.53-91.72,0.93c0-87.78,0-175.66,0-264.45
		c-15.77-0.67-30.88,0.08-46.37-0.45c0-23.45,0-46.32,0-69.95c15.25,0,30.12,0,45.08,0c1.55-4.01,0.91-7.52,0.93-10.91
		c0.12-19.76,0.6-39.47,5.23-58.83c6.93-29.01,20.18-54.2,44.11-72.89c15.81-12.34,33.97-18.98,53.76-20.87
		c34.96-3.33,68.03,4.07,99.69,18.68c0.68,0.31,1.37,0.62,1.99,1.04C4659.23,260.03,4659.49,260.49,4660.15,261.26z"/>
	<path class="st1" d="M2613.5,384.93c15.06,0,30,0,45.86,0c0-38.42,0-76.24,0-114.46c30.81,0,60.69,0,91.54,0
		c0,37.88,0,75.69,0,114.18c25.12,0,49.27,0,73.95,0c0,23.75,0,46.81,0,70.56c-24.39,0-48.53,0-71.89,0
		c-2.63,2.25-1.89,4.39-1.89,6.28c-0.04,54.99-0.04,109.99,0.01,164.98c0,3.23,0.36,6.49,0.89,9.68
		c2.22,13.38,10.08,21.36,23.44,23.73c12.38,2.2,24.38,0.18,36.12-3.82c7.07-2.41,14.06-5.08,21.06-7.62
		c2.87,4.51,18.37,64.05,18.75,72.3c-13.92,6.42-28.53,11.35-43.31,15.84c-23.69,7.19-47.81,10.18-72.53,7.44
		c-8.23-0.91-16.32-2.49-24.07-5.33c-29.57-10.84-45.75-32.54-50.61-63.2c-1.18-7.42-1.39-14.91-1.38-22.42
		c0.05-62.74,0.03-125.48,0.03-188.23c0-2.73,0-5.45,0-9.11c-15.36,0-30.43,0-45.97,0C2613.5,431.73,2613.5,408.64,2613.5,384.93z"
		/>
	<path class="st1" d="M2917.42,385.11c27.77,0,55.4,0,83.68,0c0,23.5,0,46.59,0,69.68c0.43,0.15,0.86,0.3,1.29,0.46
		c1.11-1.78,2.22-3.55,3.32-5.33c14.93-24.04,34.54-43.21,59.2-57.21c17.45-9.91,36.21-13.98,56.16-12.83
		c1.24,0.07,2.49,0.2,3.72,0.4c0.97,0.16,1.91,0.49,3.26,0.85c0,27.4,0,54.76,0,82.25c-3.39,1.62-6.96,1.07-10.38,1.25
		c-22.19,1.2-43.49,6.06-63.63,15.56c-17.86,8.42-32.22,20.8-42.16,38.08c-2.3,4.01-3.4,8.05-3.39,12.76
		c0.12,66.24,0.09,132.49,0.06,198.73c0,2.72,0.44,5.48-0.43,8.14c-5.28,1.46-81.13,1.83-90.7,0.39
		C2917.42,620.73,2917.42,503.11,2917.42,385.11z"/>
	<path class="st0" d="M884.58,366.96c-172.6,172.6-345.11,345.11-517.7,517.7c-3.19,0-6.16,0-9.14,0
		c-50.25,0-100.52,0.86-150.74-0.37c-23.82-0.58-44.42-13.51-53.68-39.24c-0.87-2.41-0.75-4.92-0.75-7.42
		c0-55.5,0.09-110.99-0.15-166.49c-0.02-5.2,2.18-8.27,5.45-11.53c87.54-87.47,175.04-174.98,262.54-262.48
		c79.55-79.55,159.13-159.06,238.55-238.73c4.25-4.26,8.42-5.9,14.38-5.88c53.25,0.22,106.5,0.39,159.75-0.03
		c15.76-0.12,27.17,7.13,36.95,18.02c6.06,6.75,9.17,15.17,12.14,23.79c2.52,7.3,2.37,14.46,2.38,21.78
		C884.6,266.08,884.58,316.07,884.58,366.96z"/>
	<path class="st0" d="M598.57,882.65c94.74-94.74,189.47-189.47,284.34-284.34c2.36,2.57,1.63,4.67,1.63,6.54
		c0.05,74.71,0.04,149.42,0.04,224.14c-3.61,21-12.21,38.85-32.5,48.47c-9.54,4.52-19.51,7.41-30.53,7.36
		c-71.46-0.31-142.93-0.16-214.39-0.16c-2.65,0-5.3,0-7.96,0C598.99,883.99,598.78,883.32,598.57,882.65z"/>
	<path class="st0" d="M152.58,431.11c0-1.56,0-4.2,0-6.85c0-74.74,0.15-149.49-0.12-224.23c-0.06-15.45,7.19-26.77,18.01-36.19
		c9.05-7.87,19.63-11.51,32.25-11.43c73.74,0.45,147.48,0.22,221.23,0.25c2.69,0,5.43-0.5,7.02,0.06
		C338.32,245.37,245.38,338.31,152.58,431.11z"/>
</g>
</svg>
