<?xml version="1.0" encoding="utf-8"?>
<!-- Generator: Adobe Illustrator 23.0.1, SVG Export Plug-In . SVG Version: 6.00 Build 0)  -->
<svg version="1.1" id="Layer_1" xmlns="http://www.w3.org/2000/svg" xmlns:xlink="http://www.w3.org/1999/xlink" x="0px" y="0px"
	 viewBox="0 0 1036.22 1036.19" style="enable-background:new 0 0 1036.22 1036.19;" xml:space="preserve">
<style type="text/css">
	.st0{fill:#FF621F;}
</style>
<g>
	<path class="st0" d="M0.05,518.15C0.05,387.92,0.12,257.7,0,127.47C-0.03,94.03,11.95,65.42,34.46,41.3
		C60.38,13.53,92.94,0.18,130.83,0.15c124.73-0.09,249.46-0.03,374.18-0.03c133.23,0,266.45-0.36,399.68,0.18
		c50.89,0.21,89.48,23.51,114.83,67.76c11.28,19.68,16.43,41.42,16.44,63.93c0.18,257.45,0.55,514.91-0.16,772.36
		c-0.2,72.84-51.36,120.53-109.48,130.09c-7.13,1.17-14.37,1.75-21.65,1.75c-258.2-0.04-516.41,0-774.61-0.06
		C67.24,1036.12,15.32,994,2.09,932.64C0.72,926.29,0,919.87,0,913.32C0.06,781.6,0.05,649.87,0.05,518.15z M517.27,71.66
		c-43.74,0-87.48,0-131.23,0c-85.48,0-170.97,0.2-256.45-0.12C105.84,71.45,80,86.76,72.63,114.97c-1.65,6.32-2.1,12.77-2.1,19.3
		c0.04,255.95,0.03,511.91,0.03,767.86c0,1.75-0.07,3.5,0.02,5.25c1.02,19.97,9.26,36.08,25.87,47.5
		c10.65,7.33,22.61,9.81,35.5,9.81c256.95-0.1,513.91-0.08,770.86-0.08c1.5,0,3,0.01,4.5-0.01c23.4-0.43,44.16-14.98,52.65-36.85
		c3.22-8.29,4.15-16.88,4.15-25.71c-0.04-255.95-0.03-511.91-0.03-767.86c0-2,0.08-4-0.04-6c-1.16-19.38-9.22-35.08-25.23-46.31
		c-10.57-7.41-22.43-10.29-35.35-10.28C774.73,71.7,646,71.66,517.27,71.66z"/>
	<path class="st0" d="M884.58,366.96c-172.6,172.6-345.11,345.11-517.7,517.7c-3.19,0-6.16,0-9.14,0
		c-50.25,0-100.52,0.86-150.74-0.37c-23.82-0.58-44.42-13.51-53.68-39.24c-0.87-2.41-0.75-4.92-0.75-7.42
		c0-55.5,0.09-110.99-0.15-166.49c-0.02-5.2,2.18-8.27,5.45-11.53c87.54-87.47,175.04-174.98,262.54-262.48
		c79.55-79.55,159.13-159.06,238.55-238.73c4.25-4.26,8.42-5.9,14.38-5.88c53.25,0.22,106.5,0.39,159.75-0.03
		c15.76-0.12,27.17,7.13,36.95,18.02c6.06,6.75,9.17,15.17,12.14,23.79c2.52,7.3,2.37,14.46,2.38,21.78
		C884.6,266.08,884.58,316.07,884.58,366.96z"/>
	<path class="st0" d="M598.57,882.65c94.74-94.74,189.47-189.47,284.34-284.34c2.36,2.57,1.63,4.67,1.63,6.54
		c0.05,74.71,0.04,149.42,0.04,224.14c-3.61,21-12.21,38.85-32.5,48.47c-9.54,4.52-19.51,7.41-30.53,7.36
		c-71.46-0.31-142.93-0.16-214.39-0.16c-2.65,0-5.3,0-7.96,0C598.99,883.99,598.78,883.32,598.57,882.65z"/>
	<path class="st0" d="M152.58,431.11c0-1.56,0-4.2,0-6.85c0-74.74,0.15-149.49-0.12-224.23c-0.06-15.45,7.19-26.77,18.01-36.19
		c9.05-7.87,19.63-11.51,32.25-11.43c73.74,0.45,147.48,0.22,221.23,0.25c2.69,0,5.43-0.5,7.02,0.06
		C338.32,245.37,245.38,338.31,152.58,431.11z"/>
</g>
</svg>
