<svg width="298" height="62" viewBox="0 0 298 62" fill="none" xmlns="http://www.w3.org/2000/svg">
<path d="M76.24 30.6C76.24 28.8667 76.5467 27.1733 77.16 25.52C77.8 23.84 78.72 22.32 79.92 20.96C81.12 19.5733 82.5867 18.48 84.32 17.68C86.0533 16.8533 88.0267 16.44 90.24 16.44C92.8533 16.44 95.1067 17.0133 97 18.16C98.92 19.3067 100.347 20.8 101.28 22.64L97.04 25.56C96.56 24.4933 95.9333 23.6533 95.16 23.04C94.3867 22.4 93.56 21.96 92.68 21.72C91.8 21.4533 90.9333 21.32 90.08 21.32C88.6933 21.32 87.48 21.6 86.44 22.16C85.4267 22.72 84.5733 23.4533 83.88 24.36C83.1867 25.2667 82.6667 26.28 82.32 27.4C82 28.52 81.84 29.64 81.84 30.76C81.84 32.0133 82.04 33.2267 82.44 34.4C82.84 35.5467 83.4 36.5733 84.12 37.48C84.8667 38.36 85.7467 39.0667 86.76 39.6C87.8 40.1067 88.9333 40.36 90.16 40.36C91.04 40.36 91.9333 40.2133 92.84 39.92C93.7467 39.6267 94.5867 39.16 95.36 38.52C96.1333 37.88 96.7333 37.0533 97.16 36.04L101.68 38.64C101.12 40.0533 100.2 41.2533 98.92 42.24C97.6667 43.2267 96.2533 43.9733 94.68 44.48C93.1067 44.9867 91.5467 45.24 90 45.24C87.9733 45.24 86.12 44.8267 84.44 44C82.76 43.1467 81.3067 42.0267 80.08 40.64C78.88 39.2267 77.9333 37.6533 77.24 35.92C76.5733 34.16 76.24 32.3867 76.24 30.6ZM115.304 45.4C113.624 45.4 112.104 45.12 110.744 44.56C109.384 43.9733 108.224 43.1867 107.264 42.2C106.304 41.1867 105.557 40.04 105.024 38.76C104.517 37.4533 104.264 36.08 104.264 34.64C104.264 32.64 104.704 30.8133 105.584 29.16C106.49 27.5067 107.77 26.1867 109.424 25.2C111.104 24.1867 113.077 23.68 115.344 23.68C117.637 23.68 119.597 24.1867 121.224 25.2C122.85 26.1867 124.09 27.5067 124.944 29.16C125.824 30.7867 126.264 32.5467 126.264 34.44C126.264 34.76 126.25 35.0933 126.224 35.44C126.197 35.76 126.17 36.0267 126.144 36.24H109.944C110.05 37.3067 110.357 38.24 110.864 39.04C111.397 39.84 112.064 40.4533 112.864 40.88C113.69 41.28 114.57 41.48 115.504 41.48C116.57 41.48 117.57 41.2267 118.504 40.72C119.464 40.1867 120.117 39.4933 120.464 38.64L125.064 39.92C124.557 40.9867 123.824 41.9333 122.864 42.76C121.93 43.5867 120.824 44.24 119.544 44.72C118.264 45.1733 116.85 45.4 115.304 45.4ZM109.824 32.84H120.784C120.677 31.7733 120.37 30.8533 119.864 30.08C119.384 29.28 118.744 28.6667 117.944 28.24C117.144 27.7867 116.25 27.56 115.264 27.56C114.304 27.56 113.424 27.7867 112.624 28.24C111.85 28.6667 111.21 29.28 110.704 30.08C110.224 30.8533 109.93 31.7733 109.824 32.84ZM149.809 45H144.449V33.24C144.449 31.56 144.156 30.3333 143.569 29.56C142.982 28.7867 142.169 28.4 141.129 28.4C140.409 28.4 139.676 28.5867 138.929 28.96C138.209 29.3333 137.556 29.8533 136.969 30.52C136.382 31.16 135.956 31.9067 135.689 32.76V45H130.329V24.04H135.169V27.92C135.702 27.0133 136.382 26.2533 137.209 25.64C138.036 25 138.982 24.52 140.049 24.2C141.142 23.8533 142.289 23.68 143.489 23.68C144.796 23.68 145.862 23.92 146.689 24.4C147.542 24.8533 148.182 25.48 148.609 26.28C149.062 27.0533 149.369 27.9333 149.529 28.92C149.716 29.9067 149.809 30.9067 149.809 31.92V45ZM167.713 43.92C167.259 44.1067 166.713 44.32 166.073 44.56C165.433 44.8 164.739 44.9867 163.993 45.12C163.273 45.28 162.539 45.36 161.793 45.36C160.806 45.36 159.899 45.1867 159.073 44.84C158.246 44.4933 157.579 43.9467 157.073 43.2C156.593 42.4267 156.353 41.4267 156.353 40.2V28.16H153.593V24.04H156.353V17.24H161.713V24.04H166.113V28.16H161.713V38.4C161.739 39.12 161.939 39.64 162.313 39.96C162.686 40.28 163.153 40.44 163.713 40.44C164.273 40.44 164.819 40.3467 165.353 40.16C165.886 39.9733 166.313 39.8133 166.633 39.68L167.713 43.92ZM183.784 28.68C182.157 28.68 180.704 29 179.424 29.64C178.144 30.2533 177.224 31.1467 176.664 32.32V45H171.304V24.04H176.224V28.52C176.971 27.08 177.917 25.9467 179.064 25.12C180.211 24.2933 181.424 23.84 182.704 23.76C182.997 23.76 183.224 23.76 183.384 23.76C183.544 23.76 183.677 23.7733 183.784 23.8V28.68ZM197.019 45.4C195.339 45.4 193.819 45.12 192.459 44.56C191.099 43.9733 189.939 43.1867 188.979 42.2C188.019 41.1867 187.273 40.04 186.739 38.76C186.233 37.4533 185.979 36.08 185.979 34.64C185.979 32.64 186.419 30.8133 187.299 29.16C188.206 27.5067 189.486 26.1867 191.139 25.2C192.819 24.1867 194.793 23.68 197.059 23.68C199.353 23.68 201.313 24.1867 202.939 25.2C204.566 26.1867 205.806 27.5067 206.659 29.16C207.539 30.7867 207.979 32.5467 207.979 34.44C207.979 34.76 207.966 35.0933 207.939 35.44C207.913 35.76 207.886 36.0267 207.859 36.24H191.659C191.766 37.3067 192.073 38.24 192.579 39.04C193.113 39.84 193.779 40.4533 194.579 40.88C195.406 41.28 196.286 41.48 197.219 41.48C198.286 41.48 199.286 41.2267 200.219 40.72C201.179 40.1867 201.833 39.4933 202.179 38.64L206.779 39.92C206.273 40.9867 205.539 41.9333 204.579 42.76C203.646 43.5867 202.539 44.24 201.259 44.72C199.979 45.1733 198.566 45.4 197.019 45.4ZM191.539 32.84H202.499C202.393 31.7733 202.086 30.8533 201.579 30.08C201.099 29.28 200.459 28.6667 199.659 28.24C198.859 27.7867 197.966 27.56 196.979 27.56C196.019 27.56 195.139 27.7867 194.339 28.24C193.566 28.6667 192.926 29.28 192.419 30.08C191.939 30.8533 191.646 31.7733 191.539 32.84Z" fill="#343434"/>
<path d="M229.485 24.04C229.298 23.8533 228.951 23.6 228.445 23.28C227.965 22.96 227.365 22.6533 226.645 22.36C225.951 22.0667 225.191 21.8133 224.365 21.6C223.538 21.36 222.698 21.24 221.845 21.24C220.351 21.24 219.218 21.52 218.445 22.08C217.698 22.64 217.325 23.4267 217.325 24.44C217.325 25.2133 217.565 25.8267 218.045 26.28C218.525 26.7333 219.245 27.12 220.205 27.44C221.165 27.76 222.365 28.1067 223.805 28.48C225.671 28.9333 227.285 29.4933 228.645 30.16C230.031 30.8 231.085 31.6533 231.805 32.72C232.551 33.76 232.925 35.1467 232.925 36.88C232.925 38.4 232.645 39.7067 232.085 40.8C231.525 41.8667 230.751 42.7333 229.765 43.4C228.778 44.0667 227.658 44.56 226.405 44.88C225.151 45.1733 223.818 45.32 222.405 45.32C220.991 45.32 219.578 45.1733 218.165 44.88C216.751 44.5867 215.391 44.1733 214.085 43.64C212.778 43.08 211.578 42.4133 210.485 41.64L212.925 36.88C213.165 37.12 213.591 37.44 214.205 37.84C214.818 38.2133 215.565 38.6 216.445 39C217.325 39.3733 218.285 39.6933 219.325 39.96C220.365 40.2267 221.418 40.36 222.485 40.36C223.978 40.36 225.111 40.1067 225.885 39.6C226.658 39.0933 227.045 38.3733 227.045 37.44C227.045 36.5867 226.738 35.92 226.125 35.44C225.511 34.96 224.658 34.5467 223.565 34.2C222.471 33.8267 221.178 33.4267 219.685 33C217.898 32.4933 216.405 31.9333 215.205 31.32C214.005 30.68 213.111 29.88 212.525 28.92C211.938 27.96 211.645 26.76 211.645 25.32C211.645 23.3733 212.098 21.7467 213.005 20.44C213.938 19.1067 215.191 18.1067 216.765 17.44C218.338 16.7467 220.085 16.4 222.005 16.4C223.338 16.4 224.591 16.5467 225.765 16.84C226.965 17.1333 228.085 17.52 229.125 18C230.165 18.48 231.098 19 231.925 19.56L229.485 24.04ZM235.858 38.8C235.858 37.44 236.231 36.2533 236.978 35.24C237.751 34.2 238.818 33.4 240.178 32.84C241.538 32.28 243.098 32 244.858 32C245.738 32 246.631 32.0667 247.538 32.2C248.444 32.3333 249.231 32.5467 249.898 32.84V31.72C249.898 30.3867 249.498 29.36 248.698 28.64C247.924 27.92 246.764 27.56 245.218 27.56C244.071 27.56 242.978 27.76 241.938 28.16C240.898 28.56 239.804 29.1467 238.658 29.92L236.938 26.4C238.324 25.4933 239.738 24.8133 241.178 24.36C242.644 23.9067 244.178 23.68 245.778 23.68C248.764 23.68 251.084 24.4267 252.738 25.92C254.418 27.4133 255.258 29.5467 255.258 32.32V39C255.258 39.56 255.351 39.96 255.538 40.2C255.751 40.44 256.084 40.5867 256.538 40.64V45C256.058 45.08 255.618 45.1467 255.218 45.2C254.844 45.2533 254.524 45.28 254.258 45.28C253.191 45.28 252.378 45.04 251.818 44.56C251.284 44.08 250.951 43.4933 250.818 42.8L250.698 41.72C249.791 42.8933 248.658 43.8 247.298 44.44C245.938 45.08 244.551 45.4 243.138 45.4C241.751 45.4 240.498 45.12 239.378 44.56C238.284 43.9733 237.418 43.1867 236.778 42.2C236.164 41.1867 235.858 40.0533 235.858 38.8ZM248.898 39.88C249.191 39.56 249.431 39.24 249.618 38.92C249.804 38.6 249.898 38.3067 249.898 38.04V35.92C249.258 35.6533 248.564 35.4533 247.818 35.32C247.071 35.16 246.364 35.08 245.698 35.08C244.311 35.08 243.164 35.3867 242.258 36C241.378 36.5867 240.938 37.3733 240.938 38.36C240.938 38.8933 241.084 39.4 241.378 39.88C241.671 40.36 242.098 40.7467 242.658 41.04C243.218 41.3333 243.884 41.48 244.658 41.48C245.458 41.48 246.244 41.3333 247.018 41.04C247.791 40.72 248.418 40.3333 248.898 39.88ZM262.268 45V29.24H259.508V25.16H262.268V23.88C262.268 22.1467 262.548 20.6533 263.108 19.4C263.695 18.12 264.508 17.1333 265.548 16.44C266.615 15.7467 267.855 15.4 269.268 15.4C270.122 15.4 270.975 15.5067 271.828 15.72C272.708 15.9333 273.575 16.24 274.428 16.64L273.348 20.68C272.948 20.4667 272.482 20.2933 271.948 20.16C271.415 20 270.908 19.92 270.428 19.92C269.522 19.92 268.828 20.24 268.348 20.88C267.868 21.52 267.628 22.4533 267.628 23.68V25.16H272.748V29.24H267.628V45H262.268ZM286.04 45.4C284.36 45.4 282.84 45.12 281.48 44.56C280.12 43.9733 278.96 43.1867 278 42.2C277.04 41.1867 276.293 40.04 275.76 38.76C275.253 37.4533 275 36.08 275 34.64C275 32.64 275.44 30.8133 276.32 29.16C277.226 27.5067 278.506 26.1867 280.16 25.2C281.84 24.1867 283.813 23.68 286.08 23.68C288.373 23.68 290.333 24.1867 291.96 25.2C293.586 26.1867 294.826 27.5067 295.68 29.16C296.56 30.7867 297 32.5467 297 34.44C297 34.76 296.986 35.0933 296.96 35.44C296.933 35.76 296.906 36.0267 296.88 36.24H280.68C280.786 37.3067 281.093 38.24 281.6 39.04C282.133 39.84 282.8 40.4533 283.6 40.88C284.426 41.28 285.306 41.48 286.24 41.48C287.306 41.48 288.306 41.2267 289.24 40.72C290.2 40.1867 290.853 39.4933 291.2 38.64L295.8 39.92C295.293 40.9867 294.56 41.9333 293.6 42.76C292.666 43.5867 291.56 44.24 290.28 44.72C289 45.1733 287.586 45.4 286.04 45.4ZM280.56 32.84H291.52C291.413 31.7733 291.106 30.8533 290.6 30.08C290.12 29.28 289.48 28.6667 288.68 28.24C287.88 27.7867 286.986 27.56 286 27.56C285.04 27.56 284.16 27.7867 283.36 28.24C282.586 28.6667 281.946 29.28 281.44 30.08C280.96 30.8533 280.666 31.7733 280.56 32.84Z" fill="#FF621F"/>
<rect x="2.5" y="2.5" width="57" height="57" rx="7.5" stroke="#FF6524" stroke-width="5"/>
<path fill-rule="evenodd" clip-rule="evenodd" d="M10 14C10 11.7909 11.7909 10 14 10H26.2273L10 26.2273V14ZM10 39.1136L39.1136 10H48C50.2091 10 52 11.7909 52 14V21.9319L21.9318 52H14C11.7909 52 10 50.2091 10 48V39.1136ZM36.25 52H48C50.2091 52 52 50.2091 52 48V36.25L36.25 52Z" fill="#FF6524"/>
</svg>
