<svg width="299" height="62" viewBox="0 0 299 62" fill="none" xmlns="http://www.w3.org/2000/svg">
<path d="M76.24 30.6C76.24 28.8667 76.5467 27.16 77.16 25.48C77.8 23.8 78.72 22.28 79.92 20.92C81.12 19.56 82.5867 18.48 84.32 17.68C86.0533 16.8533 88.0267 16.44 90.24 16.44C92.8267 16.44 95.08 17.0133 97 18.16C98.92 19.3067 100.347 20.8 101.28 22.64L97.04 25.56C96.56 24.4933 95.9333 23.6533 95.16 23.04C94.3867 22.4267 93.5467 21.9867 92.64 21.72C91.76 21.4533 90.9067 21.32 90.08 21.32C88.6933 21.32 87.48 21.6 86.44 22.16C85.4267 22.72 84.5733 23.4533 83.88 24.36C83.1867 25.2667 82.6667 26.28 82.32 27.4C82 28.52 81.84 29.64 81.84 30.76C81.84 32.44 82.1867 34.0133 82.88 35.48C83.5733 36.92 84.5467 38.0933 85.8 39C87.0533 39.9067 88.5067 40.36 90.16 40.36C91.0133 40.36 91.8933 40.2133 92.8 39.92C93.7333 39.6267 94.5867 39.16 95.36 38.52C96.1333 37.88 96.7333 37.0533 97.16 36.04L101.68 38.64C101.093 40.0533 100.173 41.2533 98.92 42.24C97.6667 43.2 96.2533 43.9467 94.68 44.48C93.1067 44.9867 91.5467 45.24 90 45.24C87.9733 45.24 86.12 44.8267 84.44 44C82.7867 43.1467 81.3467 42.0267 80.12 40.64C78.8933 39.2267 77.9333 37.6533 77.24 35.92C76.5733 34.16 76.24 32.3867 76.24 30.6Z" fill="white"/>
<path d="M115.304 45.4C113.037 45.4 111.077 44.9067 109.424 43.92C107.797 42.9333 106.53 41.6267 105.624 40C104.717 38.3467 104.264 36.56 104.264 34.64C104.264 32.6667 104.704 30.8533 105.584 29.2C106.49 27.52 107.77 26.1867 109.424 25.2C111.077 24.1867 113.05 23.68 115.344 23.68C117.637 23.68 119.597 24.1867 121.224 25.2C122.85 26.1867 124.09 27.5067 124.944 29.16C125.824 30.7867 126.264 32.5467 126.264 34.44C126.264 35.1333 126.224 35.7333 126.144 36.24H109.944C110.077 37.8667 110.677 39.1467 111.744 40.08C112.837 41.0133 114.09 41.48 115.504 41.48C116.57 41.48 117.57 41.2267 118.504 40.72C119.464 40.1867 120.117 39.4933 120.464 38.64L125.064 39.92C124.29 41.52 123.05 42.84 121.344 43.88C119.637 44.8933 117.624 45.4 115.304 45.4ZM109.824 32.84H120.784C120.624 31.2667 120.024 30 118.984 29.04C117.97 28.0533 116.73 27.56 115.264 27.56C113.824 27.56 112.584 28.0533 111.544 29.04C110.53 30 109.957 31.2667 109.824 32.84Z" fill="white"/>
<path d="M149.809 45H144.449V33.24C144.449 31.56 144.156 30.3333 143.569 29.56C142.982 28.7867 142.169 28.4 141.129 28.4C140.409 28.4 139.676 28.5867 138.929 28.96C138.209 29.3333 137.556 29.8533 136.969 30.52C136.382 31.16 135.956 31.9067 135.689 32.76V45H130.329V24.04H135.169V27.92C135.942 26.6133 137.062 25.5867 138.529 24.84C139.996 24.0667 141.649 23.68 143.489 23.68C144.796 23.68 145.862 23.92 146.689 24.4C147.516 24.8533 148.156 25.48 148.609 26.28C149.062 27.0533 149.369 27.9333 149.529 28.92C149.716 29.9067 149.809 30.9067 149.809 31.92V45Z" fill="white"/>
<path d="M167.712 43.92C166.992 44.24 166.099 44.56 165.032 44.88C163.992 45.2 162.912 45.36 161.792 45.36C160.806 45.36 159.899 45.1867 159.072 44.84C158.246 44.4933 157.579 43.9467 157.072 43.2C156.592 42.4267 156.352 41.4267 156.352 40.2V28.16H153.592V24.04H156.352V17.24H161.712V24.04H166.112V28.16H161.712V38.4C161.712 39.12 161.899 39.64 162.272 39.96C162.672 40.28 163.152 40.44 163.712 40.44C164.272 40.44 164.819 40.3467 165.352 40.16C165.886 39.9733 166.312 39.8133 166.632 39.68L167.712 43.92Z" fill="white"/>
<path d="M183.784 28.68C182.157 28.68 180.704 29 179.424 29.64C178.144 30.2533 177.224 31.1467 176.664 32.32V45H171.304V24.04H176.224V28.52C176.944 27.08 177.877 25.9467 179.024 25.12C180.197 24.2933 181.424 23.84 182.704 23.76C183.264 23.76 183.624 23.7733 183.784 23.8V28.68Z" fill="white"/>
<path d="M197.019 45.4C194.753 45.4 192.793 44.9067 191.139 43.92C189.513 42.9333 188.246 41.6267 187.339 40C186.433 38.3467 185.979 36.56 185.979 34.64C185.979 32.6667 186.419 30.8533 187.299 29.2C188.206 27.52 189.486 26.1867 191.139 25.2C192.793 24.1867 194.766 23.68 197.059 23.68C199.353 23.68 201.313 24.1867 202.939 25.2C204.566 26.1867 205.806 27.5067 206.659 29.16C207.539 30.7867 207.979 32.5467 207.979 34.44C207.979 35.1333 207.939 35.7333 207.859 36.24H191.659C191.793 37.8667 192.393 39.1467 193.459 40.08C194.553 41.0133 195.806 41.48 197.219 41.48C198.286 41.48 199.286 41.2267 200.219 40.72C201.179 40.1867 201.833 39.4933 202.179 38.64L206.779 39.92C206.006 41.52 204.766 42.84 203.059 43.88C201.353 44.8933 199.339 45.4 197.019 45.4ZM191.539 32.84H202.499C202.339 31.2667 201.739 30 200.699 29.04C199.686 28.0533 198.446 27.56 196.979 27.56C195.539 27.56 194.299 28.0533 193.259 29.04C192.246 30 191.673 31.2667 191.539 32.84Z" fill="white"/>
<path d="M230.88 24.04C230.64 23.7734 230.133 23.4267 229.36 23C228.587 22.5467 227.653 22.1467 226.56 21.8C225.493 21.4267 224.387 21.24 223.24 21.24C220.227 21.24 218.72 22.3067 218.72 24.44C218.72 25.2134 218.96 25.8267 219.44 26.28C219.92 26.7334 220.64 27.12 221.6 27.44C222.56 27.76 223.76 28.1067 225.2 28.48C227.067 28.96 228.68 29.52 230.04 30.16C231.427 30.8 232.48 31.6534 233.2 32.72C233.947 33.76 234.32 35.1467 234.32 36.88C234.32 38.9067 233.827 40.5467 232.84 41.8C231.88 43.0267 230.6 43.92 229 44.48C227.4 45.04 225.667 45.32 223.8 45.32C221.667 45.32 219.547 45 217.44 44.36C215.36 43.6934 213.507 42.7867 211.88 41.64L214.32 36.88C214.56 37.12 214.987 37.44 215.6 37.84C216.213 38.2134 216.96 38.6 217.84 39C218.72 39.3734 219.68 39.6934 220.72 39.96C221.76 40.2267 222.813 40.36 223.88 40.36C226.92 40.36 228.44 39.3867 228.44 37.44C228.44 36.6134 228.133 35.9467 227.52 35.44C226.907 34.9334 226.04 34.5067 224.92 34.16C223.827 33.8134 222.547 33.4267 221.08 33C219.267 32.4934 217.76 31.9334 216.56 31.32C215.387 30.68 214.507 29.8934 213.92 28.96C213.333 28 213.04 26.7867 213.04 25.32C213.04 23.3734 213.493 21.7467 214.4 20.44C215.333 19.1067 216.587 18.1067 218.16 17.44C219.733 16.7467 221.48 16.4 223.4 16.4C225.373 16.4 227.213 16.72 228.92 17.36C230.627 18 232.093 18.7334 233.32 19.56L230.88 24.04Z" fill="#FF621F"/>
<path d="M237.253 38.8C237.253 37.44 237.626 36.2534 238.373 35.24C239.146 34.2 240.213 33.4 241.573 32.84C242.933 32.28 244.493 32 246.253 32C247.133 32 248.026 32.08 248.933 32.24C249.84 32.3734 250.626 32.5734 251.293 32.84V31.72C251.293 30.3867 250.893 29.36 250.093 28.64C249.32 27.92 248.16 27.56 246.613 27.56C245.466 27.56 244.373 27.76 243.333 28.16C242.293 28.56 241.2 29.1467 240.053 29.92L238.333 26.4C239.72 25.4934 241.133 24.8134 242.573 24.36C244.04 23.9067 245.573 23.68 247.173 23.68C250.16 23.68 252.48 24.4267 254.133 25.92C255.813 27.4134 256.653 29.5467 256.653 32.32V39C256.653 39.5867 256.746 40 256.933 40.24C257.12 40.4534 257.453 40.5867 257.933 40.64V45C257.453 45.1067 257.013 45.1734 256.613 45.2C256.24 45.2534 255.92 45.28 255.653 45.28C254.586 45.28 253.773 45.04 253.213 44.56C252.653 44.08 252.32 43.4934 252.213 42.8L252.093 41.72C251.16 42.92 250.013 43.84 248.653 44.48C247.32 45.0934 245.946 45.4 244.533 45.4C243.12 45.4 241.866 45.12 240.773 44.56C239.68 43.9734 238.813 43.1867 238.173 42.2C237.56 41.1867 237.253 40.0534 237.253 38.8ZM250.293 39.88C250.96 39.24 251.293 38.6267 251.293 38.04V35.92C249.906 35.36 248.506 35.08 247.093 35.08C245.68 35.08 244.533 35.3867 243.653 36C242.773 36.5867 242.333 37.3734 242.333 38.36C242.333 39.16 242.653 39.88 243.293 40.52C243.933 41.16 244.853 41.48 246.053 41.48C246.853 41.48 247.626 41.3334 248.373 41.04C249.146 40.7467 249.786 40.36 250.293 39.88Z" fill="#FF621F"/>
<path d="M263.664 45V29.24H260.904V25.16H263.664V23.88C263.664 21.2934 264.29 19.24 265.544 17.72C266.824 16.1734 268.53 15.4 270.664 15.4C272.37 15.4 274.09 15.8134 275.824 16.64L274.744 20.68C274.344 20.4667 273.864 20.2934 273.304 20.16C272.77 20 272.277 19.92 271.824 19.92C269.957 19.92 269.024 21.1734 269.024 23.68V25.16H274.144V29.24H269.024V45H263.664Z" fill="#FF621F"/>
<path d="M287.435 45.4C285.168 45.4 283.208 44.9067 281.555 43.92C279.928 42.9334 278.662 41.6267 277.755 40C276.848 38.3467 276.395 36.56 276.395 34.64C276.395 32.6667 276.835 30.8534 277.715 29.2C278.622 27.52 279.902 26.1867 281.555 25.2C283.208 24.1867 285.182 23.68 287.475 23.68C289.768 23.68 291.728 24.1867 293.355 25.2C294.982 26.1867 296.222 27.5067 297.075 29.16C297.955 30.7867 298.395 32.5467 298.395 34.44C298.395 35.1334 298.355 35.7334 298.275 36.24H282.075C282.208 37.8667 282.808 39.1467 283.875 40.08C284.968 41.0134 286.222 41.48 287.635 41.48C288.702 41.48 289.702 41.2267 290.635 40.72C291.595 40.1867 292.248 39.4934 292.595 38.64L297.195 39.92C296.422 41.52 295.182 42.84 293.475 43.88C291.768 44.8934 289.755 45.4 287.435 45.4ZM281.955 32.84H292.915C292.755 31.2667 292.155 30 291.115 29.04C290.102 28.0534 288.862 27.56 287.395 27.56C285.955 27.56 284.715 28.0534 283.675 29.04C282.662 30 282.088 31.2667 281.955 32.84Z" fill="#FF621F"/>
<path fill-rule="evenodd" clip-rule="evenodd" d="M52 5H10C7.23858 5 5 7.23858 5 10V52C5 54.7614 7.23858 57 10 57H52C54.7614 57 57 54.7614 57 52V10C57 7.23858 54.7614 5 52 5ZM10 0C4.47715 0 0 4.47715 0 10V52C0 57.5228 4.47715 62 10 62H52C57.5228 62 62 57.5228 62 52V10C62 4.47715 57.5228 0 52 0H10Z" fill="#FF6524"/>
<path fill-rule="evenodd" clip-rule="evenodd" d="M10 14C10 11.7909 11.7909 10 14 10H26.2273L10 26.2273V14ZM10 39.1136L39.1136 10H48C50.2091 10 52 11.7909 52 14V21.9319L21.9318 52H14C11.7909 52 10 50.2091 10 48V39.1136ZM36.25 52H48C50.2091 52 52 50.2091 52 48V36.25L36.25 52Z" fill="#FF6524"/>
</svg>
